HIERARCHY
ROOT Hips
{
	OFFSET 0.000000 0.000000 0.000000
	CHANNELS 6 Xposition Yposition Zposition Xrotation Yrotation Zrotation
	JOINT LeftUpLeg_virtual
	{
		OFFSET 0.000000 0.000000 0.000000
		CHANNELS 3 Xrotation Yrotation Zrotation
		JOINT LeftUpLeg
		{
			OFFSET 13.026900 -6.336304 -1.092800
			CHANNELS 3 Xrotation Yrotation Zrotation
			JOINT LeftLeg
			{
				OFFSET 0.524474 -46.096886 9.782700
				CHANNELS 3 Xrotation Yrotation Zrotation
				JOINT LeftFoot
				{
					OFFSET -0.524474 -53.427422 -12.948200
					CHANNELS 3 Xrotation Yrotation Zrotation
					JOINT LeftToeBase
					{
						OFFSET 0.192200 -14.009700 16.364100
						CHANNELS 3 Xrotation Yrotation Zrotation
						JOINT LeftToe_End
						{
							OFFSET -1.784700 -0.561700 9.474800
							CHANNELS 3 Xrotation Yrotation Zrotation
							End Site
							{
								OFFSET 0 0 0
							}
						}
					}
				}
			}
		}
	}
	JOINT RightUpLeg_virtual
	{
		OFFSET 0.000000 0.000000 0.000000
		CHANNELS 3 Xrotation Yrotation Zrotation
		JOINT RightUpLeg
		{
			OFFSET -12.883000 -6.336304 -1.092800
			CHANNELS 3 Xrotation Yrotation Zrotation
			JOINT RightLeg
			{
				OFFSET -0.524587 -46.096825 9.782800
				CHANNELS 3 Xrotation Yrotation Zrotation
				JOINT RightFoot
				{
					OFFSET 0.524587 -53.427383 -12.948300
					CHANNELS 3 Xrotation Yrotation Zrotation
					JOINT RightToeBase
					{
						OFFSET -0.192200 -14.009700 16.364100
						CHANNELS 3 Xrotation Yrotation Zrotation
						JOINT RightToe_End
						{
							OFFSET 1.784700 -0.561700 9.474800
							CHANNELS 3 Xrotation Yrotation Zrotation
							End Site
							{
								OFFSET 0 0 0
							}
						}
					}
				}
			}
		}
	}
	JOINT Spine_virtual
	{
		OFFSET 0.000000 0.000000 0.000000
		CHANNELS 3 Xrotation Yrotation Zrotation
		JOINT Spine
		{
			OFFSET 0.072000 7.257294 -0.789700
			CHANNELS 3 Xrotation Yrotation Zrotation
			JOINT Spine1
			{
				OFFSET 0.000000 12.508769 -0.658067
				CHANNELS 3 Xrotation Yrotation Zrotation
				JOINT Spine1_split
				{
					OFFSET 0.000000 12.508769 -0.658067
					CHANNELS 3 Xrotation Yrotation Zrotation
					JOINT Spine2
					{
						OFFSET 0.000000 12.508769 -0.658067
						CHANNELS 3 Xrotation Yrotation Zrotation
						JOINT Neck_virtual
						{
							OFFSET 0.000000 0.000000 0.000000
							CHANNELS 3 Xrotation Yrotation Zrotation
							JOINT Neck
							{
								OFFSET 0.000000 14.033295 7.520400
								CHANNELS 3 Xrotation Yrotation Zrotation
								JOINT Head
								{
									OFFSET 0.000000 8.198502 5.703100
									CHANNELS 3 Xrotation Yrotation Zrotation
									JOINT HeadTop_End
									{
										OFFSET 0.000000 17.760803 13.332701
										CHANNELS 3 Xrotation Yrotation Zrotation
										End Site
										{
											OFFSET 0 0 0
										}
									}
								}
							}
						}
						JOINT LeftShoulder_virtual
						{
							OFFSET 0.000000 0.000000 0.000000
							CHANNELS 3 Xrotation Yrotation Zrotation
							JOINT LeftShoulder
							{
								OFFSET 6.292450 5.785301 -0.669000
								CHANNELS 3 Xrotation Yrotation Zrotation
								JOINT LeftShoulder_split
								{
									OFFSET 6.292450 5.785301 -0.669000
									CHANNELS 3 Xrotation Yrotation Zrotation
									JOINT LeftArm
									{
										OFFSET 13.907140 -6.093903 1.965100
										CHANNELS 3 Xrotation Yrotation Zrotation
										JOINT LeftForeArm
										{
											OFFSET 34.140198 0.000000 0.000000
											CHANNELS 3 Xrotation Yrotation Zrotation
											JOINT LeftHand
											{
												OFFSET 40.960209 0.000000 0.000000
												CHANNELS 3 Xrotation Yrotation Zrotation
												End Site
												{
													OFFSET 0 0 0
												}
											}
										}
									}
								}
							}
						}
						JOINT RightShoulder_virtual
						{
							OFFSET 0.000000 0.000000 0.000000
							CHANNELS 3 Xrotation Yrotation Zrotation
							JOINT RightShoulder
							{
								OFFSET -6.292450 5.785301 -0.669000
								CHANNELS 3 Xrotation Yrotation Zrotation
								JOINT RightShoulder_split
								{
									OFFSET -6.292450 5.785301 -0.669000
									CHANNELS 3 Xrotation Yrotation Zrotation
									JOINT RightArm
									{
										OFFSET -13.907140 -6.093903 1.965100
										CHANNELS 3 Xrotation Yrotation Zrotation
										JOINT RightForeArm
										{
											OFFSET -34.140198 0.000000 0.000000
											CHANNELS 3 Xrotation Yrotation Zrotation
											JOINT RightHand
											{
												OFFSET -40.960209 0.000000 0.000000
												CHANNELS 3 Xrotation Yrotation Zrotation
												End Site
												{
													OFFSET 0 0 0
												}
											}
										}
									}
								}
							}
						}
					}
				}
			}
		}
	}
}
MOTION
Frames: 11
Frame Time: 0.03333333
6.896903 94.864120 -10.141207 0.000000 0.000000 0.000000 0.484745 41.544339 -4.266922 -14.244739 2.743951 13.676200 42.772376 -2.850709 5.631756 -16.857477 19.075211 -20.865205 -5.743639 -8.813297 6.915167 0.000000 0.000000 0.000000 2.473092 41.703530 -5.387436 -42.756178 5.908750 -8.912514 41.798152 14.821026 -10.693764 8.246754 -15.761001 29.599038 -3.884633 5.863493 -10.082838 0.000000 0.000000 0.000000 -1.250830 49.844029 -2.518654 5.042791 -4.430581 -0.497908 3.595780 -1.326707 0.462822 0.157396 -0.304605 -0.102038 0.000000 0.000000 0.000000 2.866515 0.260597 0.176754 -3.454394 4.417237 3.317464 -21.888989 -8.674940 -20.654743 0.000000 0.000000 0.000000 1.695258 -1.214663 -0.416482 4.527746 -12.339319 -3.882433 -0.761957 -0.824261 -0.855810 12.304761 -44.611142 -39.130997 172.399876 -64.942094 175.455757 0.000000 0.000000 0.000000 3.117245 -0.435608 0.418499 1.345466 -4.817013 9.768894 -7.704613 8.704888 7.177813 -25.306438 -10.758306 43.358908 -160.839590 59.150353 165.020307 0.000000 0.000000 0.000000 
6.468794 97.767670 -10.303213 0.000000 0.000000 0.000000 0.522887 40.850197 -4.231321 -14.724959 1.566971 14.170289 42.471554 -3.264273 5.039883 -10.184835 17.615579 -21.685562 -4.476601 -8.608028 6.620251 0.000000 0.000000 0.000000 2.602355 41.316702 -5.010528 -41.503296 4.684933 -9.766013 37.759560 15.673711 -9.886866 9.856777 -12.669199 32.370066 -8.447174 6.480346 -10.350136 0.000000 0.000000 0.000000 -0.786378 47.474821 -2.992008 4.095922 -4.635190 -0.082025 3.081296 -1.391236 0.585857 -0.046535 -0.074501 -0.119121 0.000000 0.000000 0.000000 2.762707 0.183567 0.234870 -3.276956 4.448625 3.311464 -21.783587 -8.741122 -20.969982 0.000000 0.000000 0.000000 1.668126 -1.329362 -0.194929 4.551950 -12.605842 -2.916377 -1.591798 -1.166905 -0.453805 8.591107 -44.783290 -39.324821 172.876104 -64.298144 176.242103 0.000000 0.000000 0.000000 3.027598 -0.530467 0.497763 1.101258 -4.703626 8.540153 -6.747108 8.042657 5.588477 -27.824357 -9.902083 42.946860 -163.088525 56.463774 166.581716 0.000000 0.000000 0.000000 
6.501770 103.554657 -10.940123 0.000000 0.000000 0.000000 0.753372 39.913177 -4.118280 -15.318823 -0.398411 13.698206 41.092436 -3.473990 4.675600 -1.187413 13.346261 -21.478836 -4.745098 -8.333989 4.300978 0.000000 0.000000 0.000000 3.055658 40.059237 -4.633286 -38.507384 3.403106 -9.809285 30.962596 15.725652 -8.185684 10.034158 -10.072382 31.446399 -8.158383 6.564316 -9.920179 0.000000 0.000000 0.000000 0.702936 44.187776 -4.100726 2.734695 -4.798075 0.337236 2.763633 -1.589351 0.785591 -0.117639 0.225928 -0.053154 0.000000 0.000000 0.000000 2.606449 0.027246 0.368749 -2.329891 4.651182 3.296585 -21.898705 -7.690462 -20.454911 0.000000 0.000000 0.000000 1.829927 -1.499176 0.122087 4.576824 -12.464607 -1.865082 -1.331681 -1.375186 -1.390043 3.127143 -44.147351 -40.085369 173.447067 -63.184058 176.963863 0.000000 0.000000 0.000000 3.157539 -0.698302 0.626947 0.849625 -4.232288 6.716831 -5.331462 5.759174 5.322815 -30.250143 -6.649931 41.435892 -165.050046 54.529683 167.481744 0.000000 0.000000 0.000000 
7.023030 110.349457 -11.788675 0.000000 0.000000 0.000000 0.870394 38.173268 -3.685901 -16.048605 -2.183770 12.754999 39.981749 -3.569075 4.729465 7.797829 7.533451 -19.831041 -9.766188 -8.072216 1.223671 0.000000 0.000000 0.000000 2.976965 37.360479 -3.918471 -35.082273 1.953160 -9.320650 24.547584 14.687386 -6.267858 9.335193 -8.803798 27.387768 -4.110882 6.216777 -9.051929 0.000000 0.000000 0.000000 2.190538 40.518653 -4.687719 1.360806 -4.868357 0.575418 2.693806 -1.894092 1.015488 -0.000601 0.457480 0.019010 0.000000 0.000000 0.000000 2.459525 -0.176933 0.541367 -0.872396 4.975924 3.292129 -22.076595 -5.593660 -19.196878 0.000000 0.000000 0.000000 2.107292 -1.698997 0.472924 4.543678 -11.991886 -0.897327 -0.370759 -1.216967 -2.706696 -3.216554 -42.510298 -41.797086 173.956476 -62.046675 177.403754 0.000000 0.000000 0.000000 3.432357 -0.888579 0.808676 0.690569 -3.264159 4.788577 -3.862227 3.617658 6.158119 -31.649690 -1.978386 39.886293 -166.668719 53.813858 167.908207 0.000000 0.000000 0.000000 
7.801544 116.706573 -12.388414 0.000000 0.000000 0.000000 0.709584 35.609085 -2.702322 -16.238679 -2.950824 11.227976 39.239870 -4.083581 5.370418 14.615613 1.912087 -17.763329 -18.503432 -7.372516 -1.460715 0.000000 0.000000 0.000000 2.110451 33.093721 -2.708134 -32.623159 0.487619 -9.015427 21.612477 13.319224 -4.706554 8.982483 -8.211184 22.814065 -1.512225 5.879952 -7.952813 0.000000 0.000000 0.000000 2.857002 37.157694 -4.087584 0.405269 -4.731610 0.502146 2.844867 -2.218426 1.222369 0.102217 0.546909 0.003938 0.000000 0.000000 0.000000 2.352281 -0.396429 0.764622 0.648695 5.349641 3.273183 -22.123285 -2.612125 -17.338705 0.000000 0.000000 0.000000 2.375896 -1.905400 0.789563 4.465219 -11.211949 -0.004748 0.762067 -0.621502 -3.385857 -9.242265 -40.054347 -44.079387 174.317329 -61.481422 177.504910 0.000000 0.000000 0.000000 3.686799 -1.060178 1.019377 0.695097 -1.671388 3.216667 -2.786589 2.577170 6.912405 -31.915404 2.759797 38.970536 -167.885066 54.431915 168.018351 0.000000 0.000000 0.000000 
8.631611 121.520683 -12.448164 0.000000 0.000000 0.000000 0.207133 31.983392 -1.220830 -16.137070 -1.752964 9.219721 38.983561 -3.780586 5.682165 16.714369 -0.834614 -15.062811 -23.843904 -6.039453 -3.784532 0.000000 0.000000 0.000000 0.854856 28.367528 -1.154034 -31.239991 -0.658591 -9.249843 23.139720 12.457714 -3.787860 9.685468 -7.680030 19.593760 -2.882028 5.679428 -6.892245 0.000000 0.000000 0.000000 2.382972 34.364188 -2.382079 0.157008 -4.324305 0.125608 3.110438 -2.434516 1.359851 0.123153 0.479863 -0.086755 0.000000 0.000000 0.000000 2.233054 -0.597468 0.969330 1.806865 5.741656 3.235246 -21.937169 0.943915 -15.117710 0.000000 0.000000 0.000000 2.602696 -2.091564 0.988578 4.401100 -10.297172 0.688934 1.772284 -0.169190 -3.159924 -13.526327 -36.951798 -46.406600 174.660983 -61.747799 177.452044 0.000000 0.000000 0.000000 3.828546 -1.196279 1.216547 0.818207 0.552909 2.318248 -2.394036 2.185258 7.410097 -31.192446 6.280146 39.220200 -168.800544 56.170533 168.082650 0.000000 0.000000 0.000000 
9.226705 124.592690 -12.856897 0.000000 0.000000 0.000000 -0.562789 27.046492 0.608344 -16.574139 0.960789 7.568155 38.536190 -2.304812 5.507674 14.136313 0.040071 -12.451924 -22.413698 -4.669224 -4.961589 0.000000 0.000000 0.000000 -0.079419 24.179379 0.410955 -29.841650 -1.419250 -9.875515 27.169775 11.929212 -3.333802 10.119086 -7.638602 17.691196 -6.261372 5.388113 -5.835702 0.000000 0.000000 0.000000 1.188552 31.411856 -0.234547 0.470215 -3.605807 -0.419873 3.334947 -2.503377 1.402413 0.091633 0.321527 -0.189656 0.000000 0.000000 0.000000 2.102933 -0.736834 1.080375 2.533845 6.152855 3.152181 -21.445771 4.708772 -12.815778 0.000000 0.000000 0.000000 2.719457 -2.202269 1.028316 4.406227 -9.223512 1.202695 2.147773 0.209772 -2.404655 -15.469180 -33.571507 -48.401357 175.214897 -62.991297 177.520264 0.000000 0.000000 0.000000 3.763552 -1.279286 1.284547 0.943584 3.065342 2.097989 -2.430339 2.614506 7.270315 -30.040275 7.757824 40.662121 -169.490939 58.582901 168.220032 0.000000 0.000000 0.000000 
9.545121 125.932129 -13.555571 0.000000 0.000000 0.000000 -1.146517 21.597022 2.275437 -18.095008 3.555817 6.724772 37.328220 -0.583535 4.953965 9.979890 3.181201 -11.310870 -12.659507 -3.606348 -5.361646 0.000000 0.000000 0.000000 -0.295711 20.565983 1.730340 -27.428807 -1.921230 -10.792367 31.098039 11.326422 -3.081893 8.902795 -8.505115 16.197951 -9.275713 4.860646 -4.721252 0.000000 0.000000 0.000000 -0.105781 27.916496 1.561604 0.940123 -2.594279 -0.876616 3.381194 -2.426862 1.296961 0.022855 0.197957 -0.163961 0.000000 0.000000 0.000000 1.950170 -0.776761 1.098778 2.761341 6.567683 2.994562 -20.679771 8.213978 -10.622714 0.000000 0.000000 0.000000 2.628780 -2.216395 0.861648 4.460604 -8.086649 1.451355 1.957608 -0.104563 -1.386698 -14.906645 -30.329899 -49.817115 176.133913 -64.736321 177.889627 0.000000 0.000000 0.000000 3.545206 -1.269059 1.177349 0.940498 5.574406 2.340381 -2.512897 2.896340 6.740414 -28.826113 7.550065 42.889531 -169.855535 60.887421 168.377113 0.000000 0.000000 0.000000 
9.836988 125.589302 -13.728704 0.000000 0.000000 0.000000 -1.176351 15.960035 3.490002 -21.754485 5.006919 7.589931 35.752680 -0.183882 4.187034 8.287348 5.973850 -13.527966 0.343617 -2.812649 -5.121286 0.000000 0.000000 0.000000 0.003014 16.846260 2.831168 -24.246601 -2.325608 -12.024249 33.655504 10.564564 -2.853336 7.164140 -10.132036 15.221140 -11.405403 4.200294 -3.606281 0.000000 0.000000 0.000000 -1.234704 23.714794 2.789608 1.232487 -1.402675 -1.018539 3.262426 -2.251991 1.056131 0.006111 -0.003007 -0.076253 0.000000 0.000000 0.000000 1.800501 -0.704660 1.000717 2.544157 6.998290 2.791934 -19.790162 10.986287 -8.620104 0.000000 0.000000 0.000000 2.324656 -2.109484 0.501420 4.471702 -7.129967 1.258339 1.186843 -1.248060 -0.549345 -12.731075 -27.036501 -50.768045 177.735948 -66.224681 178.909033 0.000000 0.000000 0.000000 3.296604 -1.160815 0.911647 0.741748 7.658005 2.867287 -2.836901 2.291367 6.179165 -27.746508 6.548800 45.299707 -169.847352 62.606511 168.584928 0.000000 0.000000 0.000000 
9.822229 123.695236 -14.004202 0.000000 0.000000 0.000000 -0.696980 10.426028 4.138296 -26.158149 4.760237 9.562227 33.349635 -1.690093 3.822199 9.636453 6.282505 -18.011012 7.311478 -2.203739 -3.496356 0.000000 0.000000 0.000000 0.410919 12.884837 3.584212 -21.124566 -2.998427 -13.593158 34.724221 10.005203 -2.457944 6.720712 -12.122821 15.677456 -12.841294 3.580127 -2.740783 0.000000 0.000000 0.000000 -1.719420 18.986276 3.156264 1.169296 -0.075281 -0.674712 3.138768 -2.021114 0.766476 0.008847 -0.217306 0.008402 0.000000 0.000000 0.000000 1.764359 -0.512352 0.822057 2.098264 7.431656 2.563350 -18.823535 12.868589 -6.843101 0.000000 0.000000 0.000000 1.901173 -1.873350 0.072269 4.411112 -6.463318 0.707573 0.317722 -2.530160 -0.136347 -10.252715 -23.597306 -51.102745 -179.989555 -67.168838 -179.476239 0.000000 0.000000 0.000000 3.110189 -0.957034 0.554863 0.388285 8.974451 3.483775 -3.120058 1.344008 5.628872 -26.974678 6.118524 47.199442 -169.343038 63.645007 168.715631 0.000000 0.000000 0.000000 
9.604312 120.056610 -14.481680 0.000000 0.000000 0.000000 0.068599 5.856412 4.044080 -29.424042 3.002082 11.438437 30.761164 -3.909961 3.855483 10.917025 4.748687 -21.319865 7.511830 -1.971046 -1.550287 0.000000 0.000000 0.000000 0.817678 8.737547 3.780315 -19.153457 -3.753288 -15.034816 34.832407 10.111813 -2.168652 7.119893 -13.789785 18.211397 -15.037565 3.247105 -2.565822 0.000000 0.000000 0.000000 -1.551076 14.079491 2.852122 0.749531 1.216780 0.169987 3.160730 -1.778645 0.547810 -0.019158 -0.334428 0.121325 0.000000 0.000000 0.000000 1.952804 -0.240047 0.628977 1.360871 7.838669 2.314039 -18.042810 14.047119 -5.337712 0.000000 0.000000 0.000000 1.586556 -1.549923 -0.270521 4.266442 -6.338931 -0.168158 -0.518518 -3.402603 0.078785 -8.281027 -19.940206 -50.836934 -177.483736 -67.417478 -177.674954 0.000000 0.000000 0.000000 3.155954 -0.673847 0.288802 -0.071787 9.443746 4.235891 -3.473095 0.219980 5.144079 -26.672225 7.271324 48.274329 -168.262981 64.211005 168.635964 0.000000 0.000000 0.000000 
